<?xml version="1.0" encoding="UTF-8" standalone="no"?>
<!-- Created with Inkscape (http://www.inkscape.org/) -->

<svg
   width="120"
   height="120"
   viewBox="0 0 31.75 31.750001"
   version="1.1"
   id="svg95810"
   sodipodi:docname="visit_glow.svg"
   inkscape:version="1.2.2 (b0a8486541, 2022-12-01)"
   xml:space="preserve"
   xmlns:inkscape="http://www.inkscape.org/namespaces/inkscape"
   xmlns:sodipodi="http://sodipodi.sourceforge.net/DTD/sodipodi-0.dtd"
   xmlns="http://www.w3.org/2000/svg"
   xmlns:svg="http://www.w3.org/2000/svg"><sodipodi:namedview
     id="namedview853"
     pagecolor="#ffffff"
     bordercolor="#111111"
     borderopacity="1"
     inkscape:showpageshadow="0"
     inkscape:pageopacity="0"
     inkscape:pagecheckerboard="1"
     inkscape:deskcolor="#d1d1d1"
     showgrid="false"
     inkscape:zoom="2.606553"
     inkscape:cx="44.695043"
     inkscape:cy="37.405723"
     inkscape:window-width="2560"
     inkscape:window-height="1368"
     inkscape:window-x="0"
     inkscape:window-y="0"
     inkscape:window-maximized="1"
     inkscape:current-layer="svg95810" /><defs
     id="defs95807"><rect
       x="-36.542816"
       y="37.61306"
       width="346.23242"
       height="214.76776"
       id="rect150536" /><clipPath
       clipPathUnits="userSpaceOnUse"
       id="clipPath95965"><path
         d="M 0,841.89 H 1190.55 V 0 H 0 Z"
         id="path95963" /></clipPath><filter
       inkscape:collect="always"
       style="color-interpolation-filters:sRGB"
       id="filter11026"
       x="-0.046506147"
       y="-0.060095789"
       width="1.0930123"
       height="1.1201916"><feGaussianBlur
         inkscape:collect="always"
         stdDeviation="0.58139966"
         id="feGaussianBlur11028" /></filter></defs><path
     style="fill:#5587cc;fill-opacity:1;stroke:none;stroke-width:0.0529167;stroke-dasharray:none;stroke-opacity:1"
     d="M 0.94989014,27.987561 15.897728,24.517706 30.639043,28.091949 15.704178,30.31536 Z M 0.92635714,27.952809 3.5140304,9.7243794 16.207642,1.4571564 16.030847,24.707728 Z"
     id="path96441-6"
     sodipodi:nodetypes="cccccccccc" /><path
     style="fill:#306993;fill-opacity:0.919799;stroke:none;stroke-width:0.0529167;stroke-dasharray:none;stroke-opacity:1"
     d="M 16.157848,1.4879104 28.073315,9.5684394 30.667036,28.266331 15.972417,24.492968 Z"
     id="path96439-9"
     sodipodi:nodetypes="ccccc" /><path
     style="fill:#ffffff;fill-opacity:0.72686;stroke-width:1.11102"
     d="m 16.047389,5.8765764 6.75986,3.781812 -0.02922,-3.720268 1.099411,0.572324 -0.0136,6.0954376 -7.808235,-3.9485866 -7.3531452,3.5184256 -0.0099,4.650204 7.2291912,-2.757351 13.758153,5.933374 0.263859,1.812696 -5.103628,-1.962836 0.359512,5.596238 5.379435,1.191184 0.297798,1.825216 -6.767058,-1.668134 -2.739808,0.875642 4.273969,1.196575 -1.450332,0.226966 -6.168446,-1.381585 4.563569,-1.316867 -6.716093,-1.692573 -14.99956026,3.298499 c 0.089419,-0.404672 0.13862786,-0.80695 0.15045566,-1.219217 l 14.8947046,-3.668708 7.649885,1.850635 -0.201483,-5.715733 -7.342807,-3.004189 -8.5595175,2.767635 -0.154522,-6.259367 -4.5788466,2.591656 0.4042382,-2.572093 z"
     id="path96439-9-3-6"
     sodipodi:nodetypes="cccccccscccccccccccccccccccsccccc" /><text
     xml:space="preserve"
     transform="matrix(0.30134597,0,0,0.28675186,-1.09314,-28.466392)"
     id="text150534"
     style="font-size:40px;line-height:1.25;font-family:C059;-inkscape-font-specification:C059;letter-spacing:0px;word-spacing:0px;white-space:pre;shape-inside:url(#rect150536);display:inline;stroke-width:0.91495" /><path
     style="fill:#ffffff;fill-opacity:0.72686;stroke-width:1.11102;filter:url(#filter11026)"
     d="m 16.047389,5.8765764 6.75986,3.781812 -0.02922,-3.720268 1.099411,0.572324 -0.0136,6.0954376 -7.808235,-3.9485866 -7.3531452,3.5184256 -0.0099,4.650204 7.2291912,-2.757351 13.758153,5.933374 0.263859,1.812696 -5.103628,-1.962836 0.359512,5.596238 5.379435,1.191184 0.297798,1.825216 -6.767058,-1.668134 -2.739808,0.875642 4.273969,1.196575 -1.450332,0.226966 -6.168446,-1.381585 4.563569,-1.316867 -6.716093,-1.692573 -14.99956026,3.298499 c 0.089419,-0.404672 0.13862786,-0.80695 0.15045566,-1.219217 l 14.8947046,-3.668708 7.649885,1.850635 -0.201483,-5.715733 -7.342807,-3.004189 -8.5595175,2.767635 -0.154522,-6.259367 -4.5788466,2.591656 0.4042382,-2.572093 z"
     id="path11024"
     sodipodi:nodetypes="cccccccscccccccccccccccccccsccccc" /></svg>
