<?xml version="1.0" encoding="UTF-8" standalone="no"?>
<!-- Created with Inkscape (http://www.inkscape.org/) -->

<svg
   width="120"
   height="120"
   viewBox="0 0 31.75 31.750001"
   version="1.1"
   id="svg95810"
   xmlns="http://www.w3.org/2000/svg"
   xmlns:svg="http://www.w3.org/2000/svg">
  <defs
     id="defs95807">
    <rect
       x="-36.542816"
       y="37.61306"
       width="346.23242"
       height="214.76776"
       id="rect150536" />
    <clipPath
       clipPathUnits="userSpaceOnUse"
       id="clipPath95965">
      <path
         d="M 0,841.89 H 1190.55 V 0 H 0 Z"
         id="path95963" />
    </clipPath>
  </defs>
  <g
     id="layer1">
    <g
       id="g112880"
       transform="matrix(1.2547687,0,0,1.2547687,-10.111132,5.9036432)"
       style="stroke-width:0.79696">
      <g
         id="g557"
         transform="matrix(1.1389454,0,0,1.0837866,-2.551304,-0.70109229)">
        <g
           id="g551">
          <path
             style="fill:#5988cf;stroke-width:0.796958"
             d="m 9.7734859,17.459137 10.8991461,-2.455634 5.140379,1.110467 -3.430872,1.233143 3.26388,1.001671 -5.29499,1.003064 z m 15.3944901,-0.09569 2.049161,-0.889422 3.834074,0.835144 -3.601298,0.787204 z M 9.5021465,16.412333 10.697913,7.0114456 14.049542,5.5901195 13.918323,10.296773 20.679799,8.5656801 20.607189,13.659901 9.6179487,16.461588 9.5021435,16.412338 Z m 5.5838165,-11.2063935 5.53929,-2.7049019 0.02895,3.9965143 -5.619172,1.9775762 z m -3.839506,-2.687256 9.513124,-5.8323127 0.01399,3.94399742 -9.861286,4.76101278 z"
             id="path96441-6" />
          <path
             style="fill:#306694;stroke-width:0.796958"
             d="m 27.733526,15.285082 -0.162887,-4.135455 3.37281,1.033985 0.401321,4.011826 z m -7.13412,-1.617883 0.0822,-5.1040317 5.788493,2.1560307 0.126428,4.278028 z m 0.02585,-7.2454474 V 2.5010373 L 27.209442,5.6236175 26.961025,0.83555614 30.292901,3.0255114 30.8993,10.599244 20.625253,6.4217516 Z m 0.127881,-5.86553157 -0.01963,-1.64923253 0.03574,-2.3002305 4.96782,3.43151408 0.130225,3.13372842 z"
             id="path96439-9" />
        </g>
        <text
           xml:space="preserve"
           transform="matrix(0.21086223,0,0,0.21086223,5.4135089,-21.473244)"
           id="text150534"
           style="font-size:40px;line-height:1.25;font-family:C059;-inkscape-font-specification:C059;letter-spacing:0px;word-spacing:0px;white-space:pre;shape-inside:url(#rect150536);display:inline;stroke-width:0.91495" />
      </g>
    </g>
  </g>
</svg>
